<?xml version="1.0" standalone="no"?>
<!DOCTYPE svg PUBLIC "-//W3C//DTD SVG 20010904//EN"
        "http://www.w3.org/TR/2001/REC-SVG-20010904/DTD/svg10.dtd">
<svg version="1.0" xmlns="http://www.w3.org/2000/svg"
     width="500.000000pt" height="500.000000pt" viewBox="0 0 500.000000 500.000000"
     preserveAspectRatio="xMidYMid meet">

    <!-- Définition du dégradé (équivalent Tailwind: from-blue-600 via-blue-700 to-purple-700) -->
    <defs>
        <linearGradient id="medicalGradient" x1="0%" y1="0%" x2="100%" y2="100%">
            <stop offset="0%" style="stop-color:#2563eb;stop-opacity:1" />   <!-- blue-600 -->
            <stop offset="50%" style="stop-color:#1d4ed8;stop-opacity:1" />  <!-- blue-700 -->
            <stop offset="100%" style="stop-color:#7e22ce;stop-opacity:1" /> <!-- purple-700 -->
        </linearGradient>
    </defs>

    <g transform="translate(0.000000,500.000000) scale(0.100000,-0.100000)"
       fill="url(#medicalGradient)" stroke="none">
        <path d="M2320 4183 c-19 -2 -81 -13 -137 -24 -455 -90 -844 -370 -1083 -779
-23 -39 -39 -74 -36 -77 11 -12 185 -43 273 -49 103 -8 167 2 314 47 180 55
248 58 312 15 52 -35 67 -72 75 -193 10 -126 35 -195 101 -266 69 -75 33 -100
-59 -42 -73 46 -135 120 -188 223 -28 54 -58 104 -66 111 -38 32 -77 32 -221
0 -240 -54 -383 -40 -582 57 -111 55 -204 135 -260 225 -20 33 -37 59 -38 59
-8 0 18 -87 36 -121 43 -85 143 -169 273 -230 196 -91 391 -101 633 -32 87 25
93 26 117 9 14 -9 26 -20 26 -24 0 -13 -210 -110 -275 -127 -193 -50 -352 -17
-502 104 l-62 50 -10 -37 c-26 -94 -51 -238 -62 -355 -19 -204 11 -447 80
-649 126 -368 411 -705 759 -895 152 -84 414 -171 567 -189 33 -3 67 -10 76
-15 23 -12 155 -141 167 -163 9 -18 10 -18 22 5 8 13 13 45 12 70 -1 68 25 87
142 105 592 89 1078 476 1296 1031 126 321 140 681 40 1052 l-11 42 -57 -50
c-149 -130 -342 -162 -552 -91 -78 26 -230 100 -230 111 0 5 11 16 26 25 24
16 30 15 142 -16 73 -20 149 -35 203 -38 325 -18 657 163 707 386 6 23 8 42 7
42 -2 0 -19 -26 -39 -57 -103 -170 -297 -283 -534 -312 -100 -13 -163 -7 -300
25 -120 28 -188 31 -220 8 -13 -9 -42 -57 -67 -107 -51 -108 -102 -170 -186
-226 -112 -75 -131 -45 -45 69 62 83 73 113 81 235 8 112 18 145 54 179 50 48
163 50 296 6 103 -34 237 -60 315 -60 100 0 310 39 310 57 0 17 -118 203 -169
268 -52 65 -191 203 -261 259 -230 184 -489 298 -775 341 -91 14 -340 18 -435
8z m291 -293 c75 -22 162 -76 167 -103 3 -15 -1 -15 -34 5 -32 19 -37 20 -31
5 4 -10 2 -17 -5 -17 -7 0 -80 28 -163 62 -139 59 -148 63 -115 69 50 8 105 1
181 -21z m-147 -47 c58 -19 153 -72 180 -102 23 -25 21 -25 -34 -6 -56 20 -58
19 -30 -10 29 -30 21 -31 -54 -4 -57 20 -156 37 -156 27 0 -3 20 -18 45 -34
25 -15 45 -31 45 -35 0 -12 -77 -2 -175 21 -49 11 -105 23 -123 27 -18 3 -35
9 -37 13 -5 8 133 70 155 70 6 0 21 5 33 12 21 11 21 11 2 18 -17 6 -15 9 15
17 40 11 64 8 134 -14z m434 -208 c9 -26 12 -64 9 -107 -8 -98 -21 -112 -35
-38 -6 33 -20 73 -32 89 -20 29 -20 31 -3 66 22 46 44 42 61 -10z m-745 -11
c18 -23 18 -28 3 -65 -9 -22 -16 -67 -17 -102 l-1 -62 -13 40 c-14 41 -20 171
-9 199 8 22 16 20 37 -10z m272 -89 c82 -16 185 -10 262 16 67 22 94 -17 104
-146 3 -49 13 -107 21 -128 l15 -37 11 25 c9 19 18 25 35 23 29 -4 34 -58 12
-136 -18 -63 -39 -92 -65 -92 -11 0 -21 -14 -30 -42 -67 -226 -267 -323 -422
-205 -61 47 -105 109 -127 180 -13 44 -24 63 -37 66 -11 1 -27 10 -36 18 -21
19 -52 154 -44 188 9 36 44 33 59 -5 l13 -30 17 56 c9 30 17 78 17 107 0 102
40 174 90 163 14 -4 61 -13 105 -21z m876 -553 c19 -10 71 -32 115 -47 68 -25
95 -29 192 -29 109 -1 112 -1 90 -18 -51 -40 -129 -60 -215 -56 -76 3 -89 7
-185 56 -57 29 -114 62 -127 73 -24 20 -24 20 -5 54 l18 34 41 -23 c22 -13 56
-33 76 -44z m-1446 24 c9 -26 6 -31 -25 -58 -19 -16 -72 -48 -118 -70 -72 -36
-93 -42 -165 -46 -88 -4 -164 16 -217 58 l-25 20 60 -6 c117 -12 299 35 405
105 54 36 71 35 85 -3z m67 -93 c25 -22 23 -35 -9 -65 -70 -66 -189 -99 -285
-79 -58 13 -79 31 -34 31 46 0 141 37 216 83 41 26 79 47 84 47 5 0 18 -7 28
-17z m1300 -35 c85 -49 165 -78 215 -78 49 0 20 -19 -47 -31 -61 -11 -78 -10
-132 5 -54 15 -159 73 -173 97 -7 11 24 59 37 59 6 0 51 -23 100 -52z m-1204
-61 c10 -12 5 -21 -27 -50 -50 -45 -107 -61 -180 -52 l-56 8 60 27 c33 15 82
44 109 63 51 37 67 37 94 4z m1098 -16 c40 -27 87 -52 103 -56 45 -10 47 -23
6 -31 -67 -12 -151 12 -202 59 -13 11 -23 25 -23 30 0 11 29 47 38 47 2 0 37
-22 78 -49z m-808 -2 c35 -60 86 -113 131 -135 23 -10 41 -21 41 -24 0 -3 -20
-25 -45 -50 -42 -42 -57 -82 -36 -94 5 -3 21 -26 36 -51 l26 -45 -21 -153
c-27 -197 -29 -207 -45 -207 -12 0 -55 116 -115 315 -27 89 -70 290 -70 327 0
31 54 158 67 158 4 0 18 -18 31 -41z m471 -21 c37 -74 39 -112 10 -246 -35
-164 -127 -462 -150 -486 -19 -20 -28 13 -52 174 -27 181 -26 194 27 263 15
19 26 38 26 43 0 6 -22 32 -50 59 -27 27 -50 52 -50 56 0 4 13 12 29 17 42 15
101 72 136 131 17 28 33 51 37 51 3 0 20 -28 37 -62z m-684 0 c36 -16 31 -26
-17 -38 -24 -6 -58 -16 -76 -22 -50 -15 -48 -5 5 35 55 41 53 41 88 25z m918
-24 c21 -20 37 -37 35 -39 -5 -6 -148 37 -148 44 0 8 41 28 60 30 8 0 32 -16
53 -35z m-873 -59 c0 -3 -22 -38 -49 -78 -75 -112 -118 -206 -141 -311 l-11
-48 45 -42 c50 -47 66 -90 67 -187 2 -144 -41 -479 -70 -545 l-20 -44 23 0
c13 0 35 11 50 25 30 28 39 30 67 15 23 -13 26 -62 3 -81 -12 -10 -22 -10 -50
0 -18 7 -38 10 -43 7 -5 -3 -83 -7 -175 -8 -142 -2 -168 0 -182 14 -24 23 -11
66 22 74 19 5 32 0 52 -19 15 -14 42 -28 61 -32 l34 -7 -21 26 c-27 35 -38 93
-57 301 -9 94 -21 186 -26 206 -15 49 5 173 34 217 12 18 43 43 68 55 43 20
47 26 54 66 26 165 112 322 210 383 29 17 55 24 55 13z m847 -64 c54 -53 112
-170 139 -276 15 -57 19 -126 22 -378 l4 -307 26 -14 c52 -27 75 -62 80 -121
4 -47 1 -61 -21 -94 -42 -63 -124 -89 -185 -57 -55 29 -85 72 -89 128 -5 63
18 108 72 139 19 12 35 28 35 37 0 10 0 138 0 286 -1 361 -16 433 -135 626
-30 48 -55 90 -55 94 0 16 67 -23 107 -63z m-821 -13 c-29 -180 -29 -187 -1
-228 29 -42 28 -65 -5 -95 -11 -10 -20 -26 -20 -36 0 -10 27 -66 61 -124 33
-59 59 -114 57 -122 -2 -9 -44 37 -99 108 l-97 124 19 25 c55 71 54 66 20 105
-17 20 -31 40 -31 44 0 7 53 156 75 214 12 29 26 19 21 -15z m748 -82 c20 -54
36 -106 36 -115 0 -8 -14 -30 -32 -48 l-32 -33 32 -44 c18 -24 32 -47 32 -51
0 -4 -31 -46 -68 -93 -38 -48 -76 -99 -86 -114 -10 -16 -25 -28 -32 -28 -14 0
31 92 93 192 28 46 29 69 3 93 -33 30 -34 53 -4 92 l28 36 -12 96 c-21 167
-14 170 42 17z m-354 -601 c0 -100 -4 -155 -10 -155 -6 0 -26 6 -44 14 -27 11
-35 21 -40 51 -8 38 -7 225 1 238 2 4 24 7 49 7 l44 0 0 -155z m-144 38 c11
-42 -6 -57 -72 -63 -68 -6 -84 -14 -84 -40 0 -26 32 -41 175 -84 146 -44 178
-59 204 -93 26 -32 27 -65 2 -87 -19 -17 -21 -17 -48 12 -23 25 -55 39 -180
76 -83 25 -166 51 -185 59 -109 47 -114 169 -9 224 34 18 60 23 117 23 71 0
74 -1 80 -27z m383 7 c77 -39 105 -104 74 -168 -14 -28 -32 -44 -78 -67 l-61
-30 24 -35 c19 -28 23 -44 19 -78 -5 -48 -25 -74 -68 -92 -25 -11 -35 -10 -64
6 -19 10 -35 22 -35 25 0 4 18 22 40 39 33 26 40 38 40 66 0 26 -10 45 -40 78
-22 24 -40 46 -40 49 0 3 24 13 53 23 76 24 107 45 107 70 0 27 -19 36 -95 43
-57 6 -60 7 -63 34 -6 52 1 57 78 57 51 0 82 -6 109 -20z m-423 -302 l24 -11
-20 -20 c-12 -10 -19 -24 -17 -30 2 -7 55 -33 117 -59 192 -80 220 -96 237
-136 17 -41 11 -74 -19 -102 -25 -23 -56 -26 -83 -6 -17 12 -18 17 -6 39 27
50 6 64 -199 135 -123 42 -160 71 -160 127 0 19 8 47 17 61 14 22 21 25 51 19
18 -3 45 -11 58 -17z m104 -245 c24 -14 24 -14 -16 -9 -43 6 -73 -11 -59 -34
4 -6 62 -38 130 -69 70 -34 129 -68 138 -82 24 -34 21 -73 -9 -108 -28 -34
-49 -38 -78 -16 -15 12 -17 17 -7 29 7 8 11 27 9 43 -3 24 -12 31 -73 56 -124
49 -187 81 -201 102 -28 40 -13 115 26 127 18 6 105 -18 140 -39z m-44 -183
c25 -10 26 -12 10 -29 -31 -34 -19 -49 67 -92 97 -49 117 -65 117 -94 0 -25
-47 -78 -64 -72 -6 2 -11 19 -11 38 0 33 -3 35 -95 81 -52 25 -102 56 -112 68
-22 28 -23 68 -2 99 17 23 30 24 90 1z m12 -181 c27 -9 30 -14 26 -39 -5 -23
0 -32 29 -54 35 -27 67 -79 67 -110 0 -21 -17 -20 -24 2 -3 9 -26 30 -51 45
-58 37 -105 94 -105 128 0 41 9 45 58 28z"/>
        <path d="M1843 2175 c-38 -16 -59 -47 -69 -100 l-7 -40 30 27 c53 50 140 46
183 -9 l20 -26 0 34 c0 43 -31 94 -69 114 -36 18 -47 18 -88 0z"/>
        <path d="M1841 2062 c-68 -34 -83 -136 -56 -362 26 -211 54 -274 113 -254 16
5 34 24 44 44 27 55 50 214 52 355 1 152 -13 197 -70 221 -42 18 -42 18 -83
-4z"/>
    </g>
</svg>